# MagicaVoxel @ Ephtracy

# group
o 

# material
mtllib leftleg.mtl
usemtl palette

# normals
vn -1 0 0
vn 1 0 0
vn 0 0 1
vn 0 0 -1
vn 0 -1 0
vn 0 1 0

# texcoords
vt 0.751953 0.5
vt 0.755859 0.5
vt 0.939453 0.5
vt 0.943359 0.5
vt 0.962891 0.5
vt 0.970703 0.5
vt 0.974609 0.5
vt 0.982422 0.5
vt 0.986328 0.5

# verts
v -0.2 -0.2 0.6
v -0.2 -0.2 0.5
v -0.2 -0.2 0.4
v -0.2 -0.2 -0.2
v -0.2 -0.2 -0.3
v -0.2 -0.2 -0.4
v -0.2 -0.2 -0.5
v -0.2 -0.2 -0.6
v -0.2 -0.1 0.6
v -0.2 -0.1 0.5
v -0.2 -0.1 0.4
v -0.2 -0.1 0.3
v -0.2 0 0.6
v -0.2 0 0.5
v -0.2 0 0.3
v -0.2 0 5.96046e-08
v -0.2 0 -0.4
v -0.2 0 -0.5
v -0.2 0.1 0.4
v -0.2 0.1 5.96046e-08
v -0.2 0.2 0.6
v -0.2 0.2 0.5
v -0.2 0.2 -0.2
v -0.2 0.2 -0.3
v -0.2 0.2 -0.6
v 0.1 -0.1 0.5
v 0.1 -0.1 -0.2
v 0.1 -0.1 -0.3
v 0.1 -0.1 -0.5
v 0.1 0 0.5
v 0.1 0 -0.2
v 0.1 0.1 0.5
v 0.1 0.1 -0.2
v 0.1 0.1 -0.3
v 0.1 0.1 -0.5
v -0.1 -0.1 0.5
v -0.1 -0.1 0.4
v -0.1 -0.1 0.3
v -0.1 -0.1 5.96046e-08
v -0.1 -0.1 -0.2
v -0.1 -0.1 -0.3
v -0.1 -0.1 -0.4
v -0.1 -0.1 -0.5
v -0.1 0 0.3
v -0.1 0 5.96046e-08
v -0.1 0 -0.4
v -0.1 0 -0.5
v -0.1 0.1 0.5
v -0.1 0.1 0.4
v -0.1 0.1 5.96046e-08
v -0.1 0.1 -0.2
v -0.1 0.1 -0.3
v -0.1 0.1 -0.5
v 0.2 -0.2 0.6
v 0.2 -0.2 -0.3
v 0.2 -0.2 -0.4
v 0.2 -0.2 -0.5
v 0.2 -0.2 -0.6
v 0.2 -0.1 0.6
v 0.2 -0.1 -0.3
v 0.2 -0.1 -0.4
v 0.2 -0.1 -0.5
v 0.2 0 0.5
v 0.2 0 -0.2
v 0.2 0.1 0.6
v 0.2 0.1 0.5
v 0.2 0.1 -0.2
v 0.2 0.1 -0.3
v 0.2 0.1 -0.5
v 0.2 0.1 -0.6
v 0.2 0.2 0.6
v 0.2 0.2 -0.3
v 0.2 0.2 -0.5
v 0.2 0.2 -0.6
v -0.2 -0.2 0.6
v -0.2 -0.1 0.6
v -0.2 0 0.6
v -0.2 0.2 0.6
v -0.1 -0.2 0.6
v -0.1 -0.1 0.6
v -0.1 0 0.6
v 0 -0.2 0.6
v 0 -0.1 0.6
v 0.1 -0.2 0.6
v 0.1 -0.1 0.6
v 0.1 0.1 0.6
v 0.1 0.2 0.6
v 0.2 -0.2 0.6
v 0.2 -0.1 0.6
v 0.2 0.1 0.6
v 0.2 0.2 0.6
v -0.1 -0.1 -0.5
v -0.1 0 -0.5
v -0.1 0.1 -0.5
v 0 -0.1 -0.5
v 0.1 -0.1 -0.5
v 0.1 0.1 -0.5
v -0.1 -0.1 0.5
v -0.1 0.1 0.5
v 0.1 -0.1 0.5
v 0.1 0 0.5
v 0.1 0.1 0.5
v -0.2 -0.2 -0.6
v -0.2 0.2 -0.6
v -0.1 -0.1 -0.6
v -0.1 0.1 -0.6
v 0.1 -0.1 -0.6
v 0.1 0.1 -0.6
v 0.1 0.2 -0.6
v 0.2 -0.2 -0.6
v 0.2 0.1 -0.6
v 0.2 0.2 -0.6
v -0.2 -0.2 0.6
v -0.1 -0.2 0.6
v 0 -0.2 0.6
v 0.1 -0.2 0.6
v 0.2 -0.2 0.6
v -0.2 -0.2 0.5
v -0.1 -0.2 0.5
v 0 -0.2 0.5
v 0.1 -0.2 0.5
v -0.2 -0.2 0.4
v -0.1 -0.2 0.4
v 0 -0.2 0.4
v -0.1 -0.2 5.96046e-08
v 0 -0.2 5.96046e-08
v -0.2 -0.2 -0.2
v 0.1 -0.2 -0.2
v -0.2 -0.2 -0.3
v 0.1 -0.2 -0.3
v 0.2 -0.2 -0.3
v -0.2 -0.2 -0.4
v 0 -0.2 -0.4
v 0.1 -0.2 -0.4
v 0.2 -0.2 -0.4
v -0.2 -0.2 -0.5
v 0 -0.2 -0.5
v 0.1 -0.2 -0.5
v 0.2 -0.2 -0.5
v -0.2 -0.2 -0.6
v 0.2 -0.2 -0.6
v -0.1 0.1 0.5
v 0.1 0.1 0.5
v -0.1 0.1 0.4
v 0 0.1 0.4
v -0.1 0.1 5.96046e-08
v 0 0.1 5.96046e-08
v -0.1 0.1 -0.2
v 0.1 0.1 -0.2
v -0.1 0.1 -0.3
v 0.1 0.1 -0.3
v -0.1 0.1 -0.5
v 0.1 0.1 -0.5
v -0.1 -0.1 0.5
v 0.1 -0.1 0.5
v -0.1 -0.1 0.4
v 0 -0.1 0.4
v -0.1 -0.1 0.3
v -0.1 -0.1 5.96046e-08
v 0 -0.1 5.96046e-08
v -0.1 -0.1 -0.2
v 0.1 -0.1 -0.2
v -0.1 -0.1 -0.3
v 0.1 -0.1 -0.3
v -0.1 -0.1 -0.4
v 0 -0.1 -0.4
v -0.1 -0.1 -0.5
v 0 -0.1 -0.5
v 0.1 -0.1 -0.5
v -0.2 0.2 0.6
v 0.1 0.2 0.6
v 0.2 0.2 0.6
v -0.2 0.2 0.5
v 0.1 0.2 0.5
v -0.1 0.2 0.4
v 0 0.2 0.4
v -0.1 0.2 5.96046e-08
v 0 0.2 5.96046e-08
v -0.2 0.2 -0.2
v 0.1 0.2 -0.2
v -0.2 0.2 -0.3
v 0.1 0.2 -0.3
v 0.2 0.2 -0.3
v 0.1 0.2 -0.5
v 0.2 0.2 -0.5
v -0.2 0.2 -0.6
v 0.1 0.2 -0.6
v 0.2 0.2 -0.6

# faces
f 9/1/1 2/1/1 1/1/1
f 10/2/1 3/2/1 2/2/1
f 10/1/1 2/1/1 9/1/1
f 11/6/1 4/6/1 3/6/1
f 11/2/1 3/2/1 10/2/1
f 12/6/1 4/6/1 11/6/1
f 13/2/1 10/2/1 9/2/1
f 14/6/1 11/6/1 10/6/1
f 14/2/1 10/2/1 13/2/1
f 15/6/1 4/6/1 12/6/1
f 15/7/1 12/7/1 11/7/1
f 16/6/1 4/6/1 15/6/1
f 17/3/1 6/3/1 5/3/1
f 17/4/1 7/4/1 6/4/1
f 18/3/1 8/3/1 7/3/1
f 18/4/1 7/4/1 17/4/1
f 19/6/1 11/6/1 14/6/1
f 19/7/1 16/7/1 15/7/1
f 19/7/1 15/7/1 11/7/1
f 20/6/1 4/6/1 16/6/1
f 20/7/1 16/7/1 19/7/1
f 21/8/1 14/8/1 13/8/1
f 22/6/1 19/6/1 14/6/1
f 22/8/1 14/8/1 21/8/1
f 22/6/1 20/6/1 19/6/1
f 23/8/1 5/8/1 4/8/1
f 23/6/1 20/6/1 22/6/1
f 23/6/1 4/6/1 20/6/1
f 24/3/1 17/3/1 5/3/1
f 24/8/1 5/8/1 23/8/1
f 24/3/1 18/3/1 17/3/1
f 25/3/1 8/3/1 18/3/1
f 25/3/1 18/3/1 24/3/1
f 30/6/1 27/6/1 26/6/1
f 30/6/1 28/6/1 27/6/1
f 31/6/1 28/6/1 30/6/1
f 32/7/1 31/7/1 30/7/1
f 33/6/1 28/6/1 31/6/1
f 33/7/1 31/7/1 32/7/1
f 34/3/1 29/3/1 28/3/1
f 34/6/1 28/6/1 33/6/1
f 35/3/1 29/3/1 34/3/1
f 37/7/2 38/7/2 44/7/2
f 38/6/2 39/6/2 44/6/2
f 39/6/2 40/6/2 44/6/2
f 44/6/2 40/6/2 45/6/2
f 42/4/2 43/4/2 46/4/2
f 41/3/2 42/3/2 46/3/2
f 46/4/2 43/4/2 47/4/2
f 36/6/2 37/6/2 48/6/2
f 44/7/2 45/7/2 49/7/2
f 48/6/2 37/6/2 49/6/2
f 37/7/2 44/7/2 49/7/2
f 45/6/2 40/6/2 50/6/2
f 49/7/2 45/7/2 50/7/2
f 40/8/2 41/8/2 51/8/2
f 50/6/2 40/6/2 51/6/2
f 46/3/2 47/3/2 52/3/2
f 51/8/2 41/8/2 52/8/2
f 41/3/2 46/3/2 52/3/2
f 52/3/2 47/3/2 53/3/2
f 54/9/2 55/9/2 59/9/2
f 55/3/2 56/3/2 60/3/2
f 59/9/2 55/9/2 60/9/2
f 56/4/2 57/4/2 61/4/2
f 60/3/2 56/3/2 61/3/2
f 57/3/2 58/3/2 62/3/2
f 61/4/2 57/4/2 62/4/2
f 59/6/2 60/6/2 63/6/2
f 63/6/2 60/6/2 64/6/2
f 59/6/2 63/6/2 65/6/2
f 63/7/2 64/7/2 66/7/2
f 65/6/2 63/6/2 66/6/2
f 64/6/2 60/6/2 67/6/2
f 66/7/2 64/7/2 67/7/2
f 60/3/2 61/3/2 68/3/2
f 67/6/2 60/6/2 68/6/2
f 61/3/2 62/3/2 68/3/2
f 62/3/2 58/3/2 69/3/2
f 68/3/2 62/3/2 69/3/2
f 69/3/2 58/3/2 70/3/2
f 66/9/2 67/9/2 71/9/2
f 67/9/2 68/9/2 71/9/2
f 65/9/2 66/9/2 71/9/2
f 68/3/2 69/3/2 72/3/2
f 71/9/2 68/9/2 72/9/2
f 69/4/2 70/4/2 73/4/2
f 72/3/2 69/3/2 73/3/2
f 73/4/2 70/4/2 74/4/2
f 79/1/3 76/1/3 75/1/3
f 80/2/3 77/2/3 76/2/3
f 80/1/3 76/1/3 79/1/3
f 81/8/3 78/8/3 77/8/3
f 81/2/3 77/2/3 80/2/3
f 82/2/3 80/2/3 79/2/3
f 83/8/3 81/8/3 80/8/3
f 83/2/3 80/2/3 82/2/3
f 84/8/3 83/8/3 82/8/3
f 85/8/3 81/8/3 83/8/3
f 85/8/3 83/8/3 84/8/3
f 86/8/3 78/8/3 81/8/3
f 86/8/3 81/8/3 85/8/3
f 87/8/3 78/8/3 86/8/3
f 88/9/3 85/9/3 84/9/3
f 89/6/3 86/6/3 85/6/3
f 89/9/3 85/9/3 88/9/3
f 90/9/3 87/9/3 86/9/3
f 90/6/3 86/6/3 89/6/3
f 91/9/3 87/9/3 90/9/3
f 95/5/3 93/5/3 92/5/3
f 95/5/3 94/5/3 93/5/3
f 96/5/3 94/5/3 95/5/3
f 97/5/3 94/5/3 96/5/3
f 98/8/4 99/8/4 100/8/4
f 100/8/4 99/8/4 101/8/4
f 101/8/4 99/8/4 102/8/4
f 103/3/4 104/3/4 105/3/4
f 105/3/4 104/3/4 106/3/4
f 103/3/4 105/3/4 107/3/4
f 105/5/4 106/5/4 107/5/4
f 106/3/4 104/3/4 108/3/4
f 107/5/4 106/5/4 108/5/4
f 108/3/4 104/3/4 109/3/4
f 103/3/4 107/3/4 110/3/4
f 107/3/4 108/3/4 110/3/4
f 108/4/4 109/4/4 111/4/4
f 110/3/4 108/3/4 111/3/4
f 111/4/4 109/4/4 112/4/4
f 118/1/5 114/1/5 113/1/5
f 119/2/5 115/2/5 114/2/5
f 119/1/5 114/1/5 118/1/5
f 120/8/5 116/8/5 115/8/5
f 120/2/5 115/2/5 119/2/5
f 121/9/5 117/9/5 116/9/5
f 121/8/5 116/8/5 120/8/5
f 122/2/5 119/2/5 118/2/5
f 123/6/5 120/6/5 119/6/5
f 123/2/5 119/2/5 122/2/5
f 123/6/5 121/6/5 120/6/5
f 124/6/5 121/6/5 123/6/5
f 125/6/5 123/6/5 122/6/5
f 125/7/5 124/7/5 123/7/5
f 126/6/5 121/6/5 124/6/5
f 126/7/5 124/7/5 125/7/5
f 127/6/5 125/6/5 122/6/5
f 127/6/5 126/6/5 125/6/5
f 128/9/5 117/9/5 121/9/5
f 128/6/5 126/6/5 127/6/5
f 128/6/5 121/6/5 126/6/5
f 129/8/5 128/8/5 127/8/5
f 130/9/5 117/9/5 128/9/5
f 130/8/5 128/8/5 129/8/5
f 131/9/5 117/9/5 130/9/5
f 132/3/5 130/3/5 129/3/5
f 132/3/5 131/3/5 130/3/5
f 133/3/5 131/3/5 132/3/5
f 134/3/5 131/3/5 133/3/5
f 135/3/5 131/3/5 134/3/5
f 136/4/5 133/4/5 132/4/5
f 137/3/5 134/3/5 133/3/5
f 137/4/5 133/4/5 136/4/5
f 138/4/5 135/4/5 134/4/5
f 138/3/5 134/3/5 137/3/5
f 139/4/5 135/4/5 138/4/5
f 140/3/5 137/3/5 136/3/5
f 140/3/5 138/3/5 137/3/5
f 140/3/5 139/3/5 138/3/5
f 141/3/5 139/3/5 140/3/5
f 144/6/5 143/6/5 142/6/5
f 145/6/5 143/6/5 144/6/5
f 146/7/5 145/7/5 144/7/5
f 147/6/5 143/6/5 145/6/5
f 147/7/5 145/7/5 146/7/5
f 148/6/5 147/6/5 146/6/5
f 149/6/5 143/6/5 147/6/5
f 149/6/5 147/6/5 148/6/5
f 150/8/5 149/8/5 148/8/5
f 151/8/5 149/8/5 150/8/5
f 152/3/5 151/3/5 150/3/5
f 153/3/5 151/3/5 152/3/5
f 154/6/6 155/6/6 156/6/6
f 156/6/6 155/6/6 157/6/6
f 156/7/6 157/7/6 158/7/6
f 158/7/6 157/7/6 159/7/6
f 157/6/6 155/6/6 160/6/6
f 159/7/6 157/7/6 160/7/6
f 159/6/6 160/6/6 161/6/6
f 160/6/6 155/6/6 162/6/6
f 161/6/6 160/6/6 162/6/6
f 161/8/6 162/8/6 163/8/6
f 163/8/6 162/8/6 164/8/6
f 163/3/6 164/3/6 165/3/6
f 165/3/6 164/3/6 166/3/6
f 165/4/6 166/4/6 167/4/6
f 166/3/6 164/3/6 168/3/6
f 167/4/6 166/4/6 168/4/6
f 168/3/6 164/3/6 169/3/6
f 170/8/6 171/8/6 173/8/6
f 171/9/6 172/9/6 174/9/6
f 173/8/6 171/8/6 174/8/6
f 173/6/6 174/6/6 175/6/6
f 175/6/6 174/6/6 176/6/6
f 173/6/6 175/6/6 177/6/6
f 175/7/6 176/7/6 177/7/6
f 176/6/6 174/6/6 178/6/6
f 177/7/6 176/7/6 178/7/6
f 173/6/6 177/6/6 179/6/6
f 177/6/6 178/6/6 179/6/6
f 174/9/6 172/9/6 180/9/6
f 179/6/6 178/6/6 180/6/6
f 178/6/6 174/6/6 180/6/6
f 179/8/6 180/8/6 181/8/6
f 180/9/6 172/9/6 182/9/6
f 181/8/6 180/8/6 182/8/6
f 182/9/6 172/9/6 183/9/6
f 181/3/6 182/3/6 184/3/6
f 182/3/6 183/3/6 184/3/6
f 184/3/6 183/3/6 185/3/6
f 181/3/6 184/3/6 186/3/6
f 184/4/6 185/4/6 187/4/6
f 186/3/6 184/3/6 187/3/6
f 187/4/6 185/4/6 188/4/6
